<svg width="779" height="454" viewBox="0 0 779 454" fill="none" xmlns="http://www.w3.org/2000/svg">
<mask id="path-1-inside-1_1_23" fill="white">
<path d="M40.6959 106.2C40.3115 102.909 42.6682 99.9294 45.9595 99.545L695.546 23.6959C698.838 23.3115 701.817 25.6682 702.202 28.9595L739.43 347.793C739.815 351.085 737.458 354.064 734.167 354.449L84.58 430.298C81.2886 430.682 78.3089 428.326 77.9246 425.034L40.6959 106.2Z"/>
</mask>
<path d="M40.6959 106.2C40.3115 102.909 42.6682 99.9294 45.9595 99.545L695.546 23.6959C698.838 23.3115 701.817 25.6682 702.202 28.9595L739.43 347.793C739.815 351.085 737.458 354.064 734.167 354.449L84.58 430.298C81.2886 430.682 78.3089 428.326 77.9246 425.034L40.6959 106.2Z" fill="black"/>
<path d="M40.6959 106.2C39.5429 96.3264 46.6128 87.3872 56.4868 86.2343L682.235 13.1686C692.109 12.0156 701.049 19.0855 702.202 28.9595L702.897 34.919C702.897 34.919 700.229 35.2306 696.938 35.6149L47.3512 111.464C44.0599 111.848 41.3917 112.16 41.3917 112.16L40.6959 106.2ZM740.126 353.753L78.6205 430.994L740.126 353.753ZM78.6205 430.994L40 100.241L78.6205 430.994ZM701.506 23L740.126 353.753L701.506 23Z" fill="#E9E9E9" mask="url(#path-1-inside-1_1_23)"/>
<path d="M275.105 246.069C270.62 252.488 265.439 256.973 259.561 259.525C253.684 262 247.691 263.237 241.581 263.237C233.771 263.237 226.811 261.42 220.701 257.785C214.592 254.073 209.836 249.085 206.433 242.821C203.031 236.557 201.329 229.674 201.329 222.173C201.329 214.749 202.876 207.712 205.969 201.061C209.063 194.41 213.703 188.997 219.889 184.821C226.153 180.645 233.655 178.557 242.393 178.557C250.591 178.557 258.092 180.606 264.897 184.705L264.433 179.369H272.321V206.745H266.521C265.748 199.476 263.312 193.83 259.213 189.809C255.115 185.788 249.779 183.777 243.205 183.777C237.869 183.777 232.997 185.285 228.589 188.301C224.181 191.317 220.701 195.648 218.149 201.293C215.597 206.861 214.321 213.357 214.321 220.781C214.321 227.818 215.675 234.082 218.381 239.573C221.088 244.986 224.723 249.201 229.285 252.217C233.925 255.233 239.029 256.741 244.597 256.741C249.779 256.741 254.689 255.581 259.329 253.261C264.047 250.941 267.952 247.577 271.045 243.169L275.105 246.069ZM352.735 261.497H324.547V257.205H324.895C329.303 257.205 331.507 255.465 331.507 251.985C331.507 250.748 331.081 248.93 330.231 246.533L326.287 235.977L297.171 236.673H297.519C296.591 239.225 295.276 243.246 293.575 248.737C292.879 251.057 291.951 253.609 290.791 256.393L299.723 255.929V261.497H276.407V257.205H276.755C278.533 257.282 279.964 256.934 281.047 256.161C282.207 255.31 283.135 254.189 283.831 252.797C284.527 251.405 285.377 249.278 286.383 246.417C286.46 246.108 286.885 244.909 287.659 242.821L311.671 177.861H315.847L341.831 243.749C343.919 249.317 344.924 253.532 344.847 256.393L352.735 255.929V261.497ZM316.311 209.413L311.787 196.885L307.611 208.253C304.904 215.677 302.197 223.333 299.491 231.221H324.431L316.311 209.413ZM409.92 246.301C411.699 249.162 413.129 251.289 414.212 252.681C415.372 254.073 416.725 255.194 418.272 256.045C419.896 256.896 421.868 257.282 424.188 257.205V261.497H408.296C406.131 259.641 404.313 257.785 402.844 255.929C401.452 254.073 399.751 251.598 397.74 248.505L389.968 236.325C389.813 236.016 389.581 235.668 389.272 235.281C389.04 234.817 388.769 234.314 388.46 233.773C388.228 233.464 387.493 232.342 386.256 230.409C385.019 228.398 383.743 226.736 382.428 225.421C381.809 225.498 380.881 225.537 379.644 225.537C377.943 225.537 376.667 225.498 375.816 225.421V247.461C375.816 251.328 375.7 254.305 375.468 256.393L383.82 255.929V261.497H356.096V257.205H356.444C359.073 257.205 360.929 256.664 362.012 255.581C363.095 254.421 363.713 253.068 363.868 251.521C364.023 249.974 364.1 247.19 364.1 243.169V193.521C364.1 190.428 364.216 187.721 364.448 185.401L356.096 185.865V180.297H356.444C364.487 180.142 370.673 180.065 375.004 180.065C378.793 180.065 381.616 180.104 383.472 180.181C405.048 180.49 415.836 187.489 415.836 201.177C415.913 206.436 414.328 211.153 411.08 215.329C407.832 219.505 402.148 222.482 394.028 224.261H394.26C395.652 225.344 396.851 226.62 397.856 228.089C398.939 229.481 400.331 231.492 402.032 234.121L409.92 246.301ZM380.224 220.665C387.493 220.665 393.1 219.312 397.044 216.605C400.988 213.821 402.96 209.104 402.96 202.453C402.96 196.498 401.336 192.129 398.088 189.345C394.917 186.484 389.891 185.053 383.008 185.053C380.843 185.053 379.257 185.44 378.252 186.213C377.247 186.986 376.589 188.069 376.28 189.461C375.971 190.776 375.816 192.67 375.816 195.145V198.625V220.433H375.468C377.788 220.588 379.373 220.665 380.224 220.665ZM457.124 180.181C466.713 180.104 475.104 181.573 482.296 184.589C489.565 187.605 495.21 192.206 499.232 198.393C503.253 204.502 505.264 212.12 505.264 221.245C505.264 228.437 503.524 235.088 500.044 241.197C496.641 247.306 491.537 252.217 484.732 255.929C477.926 259.641 469.768 261.497 460.256 261.497H428.936V257.205H429.284C431.913 257.205 433.769 256.664 434.852 255.581C435.934 254.421 436.553 253.068 436.708 251.521C436.862 249.974 436.94 247.19 436.94 243.169V193.521C436.94 190.428 437.056 187.721 437.288 185.401L428.936 185.865V180.297L457.124 180.181ZM459.908 256.625C466.249 256.625 471.856 255.078 476.728 251.985C481.677 248.892 485.505 244.638 488.212 239.225C490.918 233.734 492.272 227.586 492.272 220.781C492.272 209.413 489.217 200.597 483.108 194.333C477.076 188.069 467.989 184.937 455.848 184.937C453.682 184.937 452.097 185.324 451.092 186.097C450.086 186.87 449.429 187.953 449.12 189.345C448.81 190.737 448.656 192.67 448.656 195.145V198.625V247.577C448.656 251.444 448.54 254.382 448.308 256.393H447.96C450.589 256.548 454.572 256.625 459.908 256.625ZM585.317 184.589H584.969C581.412 184.666 578.435 185.826 576.037 188.069C573.717 190.234 571.088 194.024 568.149 199.437L553.649 226.697L553.417 247.113C553.495 250.98 553.417 254.073 553.185 256.393L562.813 255.929V261.497H533.929V257.205H534.277C537.448 257.128 539.497 256.277 540.425 254.653C541.353 253.029 541.817 250.438 541.817 246.881V243.169L541.933 230.177L521.865 198.625C518.308 192.98 516.22 188.649 515.601 185.633L508.293 185.865V180.297H539.845V184.589H539.497C533.62 184.512 530.681 186.136 530.681 189.461C530.681 191.394 531.648 193.869 533.581 196.885C539.691 206.629 544.949 214.672 549.357 221.013C549.744 220.24 552.721 214.633 558.289 204.193L563.741 193.985C563.896 193.676 564.476 192.593 565.481 190.737C566.564 188.804 567.763 187.064 569.077 185.517L560.029 185.865V180.297H585.317V184.589Z" fill="white"/>
<path d="M263.761 295.745H270.649V297.497H261.817V281.321H263.761V295.745ZM275.199 295.793H282.279V297.497H273.255V281.321H282.159V283.025H275.199V288.569H281.343V290.273H275.199V295.793ZM294.542 281.321V283.025H290.174V297.497H288.23V283.025H283.862V281.321H294.542ZM312.58 291.401V281.321H314.524V291.353C314.524 293.433 313.996 295.009 312.94 296.081C311.9 297.153 310.444 297.689 308.572 297.689C306.732 297.689 305.292 297.169 304.252 296.129C303.212 295.073 302.692 293.545 302.692 291.545V281.321H304.636V291.521C304.636 293.009 304.988 294.105 305.692 294.809C306.412 295.513 307.372 295.865 308.572 295.865C311.244 295.865 312.58 294.377 312.58 291.401ZM326.657 281.921V283.961C325.681 283.321 324.513 283.001 323.153 283.001C322.177 283.001 321.401 283.233 320.825 283.697C320.249 284.145 319.961 284.737 319.961 285.473C319.961 285.857 320.033 286.201 320.177 286.505C320.337 286.809 320.609 287.097 320.993 287.369C321.377 287.625 321.705 287.825 321.977 287.969C322.249 288.097 322.673 288.289 323.249 288.545C323.793 288.785 324.209 288.977 324.497 289.121C324.785 289.249 325.153 289.465 325.601 289.769C326.065 290.057 326.409 290.345 326.633 290.633C326.873 290.905 327.081 291.273 327.257 291.737C327.449 292.185 327.545 292.673 327.545 293.201C327.545 294.625 327.057 295.729 326.081 296.513C325.105 297.281 323.849 297.665 322.313 297.665C320.617 297.665 319.177 297.321 317.993 296.633V294.545C319.161 295.425 320.585 295.865 322.265 295.865C323.273 295.865 324.065 295.641 324.641 295.193C325.217 294.745 325.505 294.097 325.505 293.249C325.505 292.897 325.433 292.585 325.289 292.313C325.161 292.025 324.937 291.769 324.617 291.545C324.313 291.305 324.017 291.113 323.729 290.969C323.457 290.809 323.081 290.617 322.601 290.393C322.505 290.345 322.361 290.281 322.169 290.201C321.481 289.897 320.953 289.649 320.585 289.457C320.233 289.265 319.809 288.985 319.313 288.617C318.833 288.233 318.481 287.793 318.257 287.297C318.033 286.801 317.921 286.225 317.921 285.569C317.921 284.193 318.409 283.121 319.385 282.353C320.377 281.569 321.617 281.177 323.105 281.177C324.497 281.177 325.681 281.425 326.657 281.921ZM346.422 281.321H348.366V297.497H346.422V290.177H338.574V297.497H336.63V281.321H338.574V288.425H346.422V281.321ZM353.996 295.793H361.076V297.497H352.052V281.321H360.956V283.025H353.996V288.569H360.14V290.273H353.996V295.793ZM366.019 295.745H372.907V297.497H364.075V281.321H366.019V295.745ZM377.457 289.889H379.953C381.169 289.889 382.121 289.577 382.809 288.953C383.497 288.313 383.841 287.505 383.841 286.529C383.841 285.441 383.489 284.577 382.785 283.937C382.081 283.297 381.081 282.977 379.785 282.977H377.457V289.889ZM375.513 281.321H379.761C381.633 281.321 383.105 281.809 384.177 282.785C385.265 283.745 385.809 284.993 385.809 286.529C385.809 287.969 385.273 289.169 384.201 290.129C383.129 291.073 381.713 291.545 379.953 291.545H377.457V297.497H375.513V281.321ZM406.21 281.321L400.666 291.473V297.497H398.722V291.497L393.226 281.321H395.482L396.706 283.697C397.538 285.297 398.202 286.601 398.698 287.609C399.194 288.617 399.482 289.225 399.562 289.433L399.682 289.721C399.826 289.321 400.842 287.313 402.73 283.697L403.954 281.321H406.21ZM407.981 289.337C407.981 286.793 408.629 284.769 409.925 283.265C411.237 281.761 413.005 281.009 415.229 281.009C417.501 281.009 419.277 281.761 420.557 283.265C421.853 284.753 422.501 286.777 422.501 289.337C422.501 291.881 421.845 293.913 420.533 295.433C419.237 296.937 417.477 297.689 415.253 297.689C413.061 297.689 411.301 296.929 409.973 295.409C408.645 293.889 407.981 291.865 407.981 289.337ZM410.021 289.337C410.021 291.337 410.493 292.921 411.437 294.089C412.397 295.257 413.669 295.841 415.253 295.841C416.901 295.841 418.173 295.265 419.069 294.113C419.981 292.961 420.437 291.369 420.437 289.337C420.437 287.305 419.981 285.713 419.069 284.561C418.157 283.409 416.877 282.833 415.229 282.833C413.597 282.833 412.317 283.417 411.389 284.585C410.477 285.737 410.021 287.321 410.021 289.337ZM435.345 291.401V281.321H437.289V291.353C437.289 293.433 436.761 295.009 435.705 296.081C434.665 297.153 433.209 297.689 431.337 297.689C429.497 297.689 428.057 297.169 427.017 296.129C425.977 295.073 425.457 293.545 425.457 291.545V281.321H427.401V291.521C427.401 293.009 427.753 294.105 428.457 294.809C429.177 295.513 430.137 295.865 431.337 295.865C434.009 295.865 435.345 294.377 435.345 291.401Z" fill="#323232"/>
<path d="M458.474 282.017V285.569C457.274 284.833 455.938 284.465 454.466 284.465C453.17 284.465 452.082 284.921 451.202 285.833C450.322 286.729 449.882 287.937 449.882 289.457C449.882 290.945 450.322 292.129 451.202 293.009C452.082 293.873 453.218 294.305 454.61 294.305C456.114 294.305 457.402 293.921 458.474 293.153V296.777C457.498 297.385 456.09 297.689 454.25 297.689C451.882 297.689 449.898 296.929 448.298 295.409C446.714 293.873 445.922 291.889 445.922 289.457C445.922 286.993 446.69 284.985 448.226 283.433C449.778 281.881 451.794 281.105 454.274 281.105C456.098 281.105 457.498 281.409 458.474 282.017ZM464.936 284.321V288.881H466.688C468.288 288.881 469.088 288.097 469.088 286.529C469.088 285.841 468.88 285.305 468.464 284.921C468.048 284.521 467.48 284.321 466.76 284.321H464.936ZM469.568 297.497L466.064 291.881H464.936V297.497H461.24V281.321H466.832C468.64 281.321 470.088 281.801 471.176 282.761C472.28 283.721 472.832 284.969 472.832 286.505C472.832 288.809 471.848 290.401 469.88 291.281L473.984 297.497H469.568ZM479.702 294.545H486.038V297.497H475.982V281.321H485.942V284.273H479.702V287.945H485.27V290.873H479.702V294.545ZM493.765 291.209H497.653L497.485 290.633C497.021 289.065 496.637 287.729 496.333 286.625C496.045 285.521 495.869 284.809 495.805 284.489L495.709 284.009C495.581 284.889 494.989 287.097 493.933 290.633L493.765 291.209ZM499.525 297.497L498.541 294.185H492.877L491.893 297.497H488.029L493.429 281.321H498.085L503.485 297.497H499.525ZM516.383 281.321V284.297H512.447V297.497H508.727V284.297H504.767V281.321H516.383ZM522.382 294.545H528.718V297.497H518.662V281.321H528.622V284.273H522.382V287.945H527.95V290.873H522.382V294.545Z" fill="#808080"/>
</svg>
