<svg width="779" height="454" viewBox="0 0 779 454" fill="none" xmlns="http://www.w3.org/2000/svg">
<mask id="path-1-inside-1_1_14" fill="white">
<path d="M39.6959 106.2C39.3115 102.909 41.6682 99.9294 44.9595 99.545L694.546 23.6959C697.838 23.3115 700.817 25.6682 701.202 28.9595L738.43 347.793C738.815 351.085 736.458 354.064 733.167 354.449L83.58 430.298C80.2886 430.682 77.3089 428.326 76.9246 425.034L39.6959 106.2Z"/>
</mask>
<path d="M39.6959 106.2C39.3115 102.909 41.6682 99.9294 44.9595 99.545L694.546 23.6959C697.838 23.3115 700.817 25.6682 701.202 28.9595L738.43 347.793C738.815 351.085 736.458 354.064 733.167 354.449L83.58 430.298C80.2886 430.682 77.3089 428.326 76.9246 425.034L39.6959 106.2Z" fill="white"/>
<path d="M39.6959 106.2C38.5429 96.3264 45.6128 87.3872 55.4868 86.2343L681.235 13.1686C691.109 12.0156 700.049 19.0855 701.202 28.9595L701.897 34.919C701.897 34.919 699.229 35.2306 695.938 35.6149L46.3512 111.464C43.0599 111.848 40.3917 112.16 40.3917 112.16L39.6959 106.2ZM739.126 353.753L77.6205 430.994L739.126 353.753ZM77.6205 430.994L39 100.241L77.6205 430.994ZM700.506 23L739.126 353.753L700.506 23Z" fill="#161616" mask="url(#path-1-inside-1_1_14)"/>
<path d="M274.105 246.069C269.62 252.488 264.439 256.973 258.561 259.525C252.684 262 246.691 263.237 240.581 263.237C232.771 263.237 225.811 261.42 219.701 257.785C213.592 254.073 208.836 249.085 205.433 242.821C202.031 236.557 200.329 229.674 200.329 222.173C200.329 214.749 201.876 207.712 204.969 201.061C208.063 194.41 212.703 188.997 218.889 184.821C225.153 180.645 232.655 178.557 241.393 178.557C249.591 178.557 257.092 180.606 263.897 184.705L263.433 179.369H271.321V206.745H265.521C264.748 199.476 262.312 193.83 258.213 189.809C254.115 185.788 248.779 183.777 242.205 183.777C236.869 183.777 231.997 185.285 227.589 188.301C223.181 191.317 219.701 195.648 217.149 201.293C214.597 206.861 213.321 213.357 213.321 220.781C213.321 227.818 214.675 234.082 217.381 239.573C220.088 244.986 223.723 249.201 228.285 252.217C232.925 255.233 238.029 256.741 243.597 256.741C248.779 256.741 253.689 255.581 258.329 253.261C263.047 250.941 266.952 247.577 270.045 243.169L274.105 246.069ZM351.735 261.497H323.547V257.205H323.895C328.303 257.205 330.507 255.465 330.507 251.985C330.507 250.748 330.081 248.93 329.231 246.533L325.287 235.977L296.171 236.673H296.519C295.591 239.225 294.276 243.246 292.575 248.737C291.879 251.057 290.951 253.609 289.791 256.393L298.723 255.929V261.497H275.407V257.205H275.755C277.533 257.282 278.964 256.934 280.047 256.161C281.207 255.31 282.135 254.189 282.831 252.797C283.527 251.405 284.377 249.278 285.383 246.417C285.46 246.108 285.885 244.909 286.659 242.821L310.671 177.861H314.847L340.831 243.749C342.919 249.317 343.924 253.532 343.847 256.393L351.735 255.929V261.497ZM315.311 209.413L310.787 196.885L306.611 208.253C303.904 215.677 301.197 223.333 298.491 231.221H323.431L315.311 209.413ZM408.92 246.301C410.699 249.162 412.129 251.289 413.212 252.681C414.372 254.073 415.725 255.194 417.272 256.045C418.896 256.896 420.868 257.282 423.188 257.205V261.497H407.296C405.131 259.641 403.313 257.785 401.844 255.929C400.452 254.073 398.751 251.598 396.74 248.505L388.968 236.325C388.813 236.016 388.581 235.668 388.272 235.281C388.04 234.817 387.769 234.314 387.46 233.773C387.228 233.464 386.493 232.342 385.256 230.409C384.019 228.398 382.743 226.736 381.428 225.421C380.809 225.498 379.881 225.537 378.644 225.537C376.943 225.537 375.667 225.498 374.816 225.421V247.461C374.816 251.328 374.7 254.305 374.468 256.393L382.82 255.929V261.497H355.096V257.205H355.444C358.073 257.205 359.929 256.664 361.012 255.581C362.095 254.421 362.713 253.068 362.868 251.521C363.023 249.974 363.1 247.19 363.1 243.169V193.521C363.1 190.428 363.216 187.721 363.448 185.401L355.096 185.865V180.297H355.444C363.487 180.142 369.673 180.065 374.004 180.065C377.793 180.065 380.616 180.104 382.472 180.181C404.048 180.49 414.836 187.489 414.836 201.177C414.913 206.436 413.328 211.153 410.08 215.329C406.832 219.505 401.148 222.482 393.028 224.261H393.26C394.652 225.344 395.851 226.62 396.856 228.089C397.939 229.481 399.331 231.492 401.032 234.121L408.92 246.301ZM379.224 220.665C386.493 220.665 392.1 219.312 396.044 216.605C399.988 213.821 401.96 209.104 401.96 202.453C401.96 196.498 400.336 192.129 397.088 189.345C393.917 186.484 388.891 185.053 382.008 185.053C379.843 185.053 378.257 185.44 377.252 186.213C376.247 186.986 375.589 188.069 375.28 189.461C374.971 190.776 374.816 192.67 374.816 195.145V198.625V220.433H374.468C376.788 220.588 378.373 220.665 379.224 220.665ZM456.124 180.181C465.713 180.104 474.104 181.573 481.296 184.589C488.565 187.605 494.21 192.206 498.232 198.393C502.253 204.502 504.264 212.12 504.264 221.245C504.264 228.437 502.524 235.088 499.044 241.197C495.641 247.306 490.537 252.217 483.732 255.929C476.926 259.641 468.768 261.497 459.256 261.497H427.936V257.205H428.284C430.913 257.205 432.769 256.664 433.852 255.581C434.934 254.421 435.553 253.068 435.708 251.521C435.862 249.974 435.94 247.19 435.94 243.169V193.521C435.94 190.428 436.056 187.721 436.288 185.401L427.936 185.865V180.297L456.124 180.181ZM458.908 256.625C465.249 256.625 470.856 255.078 475.728 251.985C480.677 248.892 484.505 244.638 487.212 239.225C489.918 233.734 491.272 227.586 491.272 220.781C491.272 209.413 488.217 200.597 482.108 194.333C476.076 188.069 466.989 184.937 454.848 184.937C452.682 184.937 451.097 185.324 450.092 186.097C449.086 186.87 448.429 187.953 448.12 189.345C447.81 190.737 447.656 192.67 447.656 195.145V198.625V247.577C447.656 251.444 447.54 254.382 447.308 256.393H446.96C449.589 256.548 453.572 256.625 458.908 256.625ZM584.317 184.589H583.969C580.412 184.666 577.435 185.826 575.037 188.069C572.717 190.234 570.088 194.024 567.149 199.437L552.649 226.697L552.417 247.113C552.495 250.98 552.417 254.073 552.185 256.393L561.813 255.929V261.497H532.929V257.205H533.277C536.448 257.128 538.497 256.277 539.425 254.653C540.353 253.029 540.817 250.438 540.817 246.881V243.169L540.933 230.177L520.865 198.625C517.308 192.98 515.22 188.649 514.601 185.633L507.293 185.865V180.297H538.845V184.589H538.497C532.62 184.512 529.681 186.136 529.681 189.461C529.681 191.394 530.648 193.869 532.581 196.885C538.691 206.629 543.949 214.672 548.357 221.013C548.744 220.24 551.721 214.633 557.289 204.193L562.741 193.985C562.896 193.676 563.476 192.593 564.481 190.737C565.564 188.804 566.763 187.064 568.077 185.517L559.029 185.865V180.297H584.317V184.589Z" fill="black"/>
<path d="M256.75 295.745H263.638V297.497H254.806V281.321H256.75V295.745ZM268.187 295.793H275.267V297.497H266.243V281.321H275.147V283.025H268.187V288.569H274.331V290.273H268.187V295.793ZM287.531 281.321V283.025H283.163V297.497H281.219V283.025H276.851V281.321H287.531ZM305.568 291.401V281.321H307.512V291.353C307.512 293.433 306.984 295.009 305.928 296.081C304.888 297.153 303.432 297.689 301.56 297.689C299.72 297.689 298.28 297.169 297.24 296.129C296.2 295.073 295.68 293.545 295.68 291.545V281.321H297.624V291.521C297.624 293.009 297.976 294.105 298.68 294.809C299.4 295.513 300.36 295.865 301.56 295.865C304.232 295.865 305.568 294.377 305.568 291.401ZM319.645 281.921V283.961C318.669 283.321 317.501 283.001 316.141 283.001C315.165 283.001 314.389 283.233 313.813 283.697C313.237 284.145 312.949 284.737 312.949 285.473C312.949 285.857 313.021 286.201 313.165 286.505C313.325 286.809 313.597 287.097 313.981 287.369C314.365 287.625 314.693 287.825 314.965 287.969C315.237 288.097 315.661 288.289 316.237 288.545C316.781 288.785 317.197 288.977 317.485 289.121C317.773 289.249 318.141 289.465 318.589 289.769C319.053 290.057 319.397 290.345 319.621 290.633C319.861 290.905 320.069 291.273 320.245 291.737C320.437 292.185 320.533 292.673 320.533 293.201C320.533 294.625 320.045 295.729 319.069 296.513C318.093 297.281 316.837 297.665 315.301 297.665C313.605 297.665 312.165 297.321 310.981 296.633V294.545C312.149 295.425 313.573 295.865 315.253 295.865C316.261 295.865 317.053 295.641 317.629 295.193C318.205 294.745 318.493 294.097 318.493 293.249C318.493 292.897 318.421 292.585 318.277 292.313C318.149 292.025 317.925 291.769 317.605 291.545C317.301 291.305 317.005 291.113 316.717 290.969C316.445 290.809 316.069 290.617 315.589 290.393C315.493 290.345 315.349 290.281 315.157 290.201C314.469 289.897 313.941 289.649 313.573 289.457C313.221 289.265 312.797 288.985 312.301 288.617C311.821 288.233 311.469 287.793 311.245 287.297C311.021 286.801 310.909 286.225 310.909 285.569C310.909 284.193 311.397 283.121 312.373 282.353C313.365 281.569 314.605 281.177 316.093 281.177C317.485 281.177 318.669 281.425 319.645 281.921ZM325.703 295.793H332.783V297.497H323.759V281.321H332.663V283.025H325.703V288.569H331.847V290.273H325.703V295.793ZM351.434 281.321H353.378V297.497H351.434V290.177H343.586V297.497H341.642V281.321H343.586V288.425H351.434V281.321ZM359.007 295.793H366.087V297.497H357.063V281.321H365.967V283.025H359.007V288.569H365.151V290.273H359.007V295.793ZM371.031 295.745H377.919V297.497H369.087V281.321H371.031V295.745ZM382.468 289.889H384.964C386.18 289.889 387.132 289.577 387.82 288.953C388.508 288.313 388.852 287.505 388.852 286.529C388.852 285.441 388.5 284.577 387.796 283.937C387.092 283.297 386.092 282.977 384.796 282.977H382.468V289.889ZM380.524 281.321H384.772C386.644 281.321 388.116 281.809 389.188 282.785C390.276 283.745 390.82 284.993 390.82 286.529C390.82 287.969 390.284 289.169 389.212 290.129C388.14 291.073 386.724 291.545 384.964 291.545H382.468V297.497H380.524V281.321ZM411.222 281.321L405.678 291.473V297.497H403.734V291.497L398.238 281.321H400.494L401.718 283.697C402.55 285.297 403.214 286.601 403.71 287.609C404.206 288.617 404.494 289.225 404.574 289.433L404.694 289.721C404.838 289.321 405.854 287.313 407.742 283.697L408.966 281.321H411.222ZM412.992 289.337C412.992 286.793 413.64 284.769 414.936 283.265C416.248 281.761 418.016 281.009 420.24 281.009C422.512 281.009 424.288 281.761 425.568 283.265C426.864 284.753 427.512 286.777 427.512 289.337C427.512 291.881 426.856 293.913 425.544 295.433C424.248 296.937 422.488 297.689 420.264 297.689C418.072 297.689 416.312 296.929 414.984 295.409C413.656 293.889 412.992 291.865 412.992 289.337ZM415.032 289.337C415.032 291.337 415.504 292.921 416.448 294.089C417.408 295.257 418.68 295.841 420.264 295.841C421.912 295.841 423.184 295.265 424.08 294.113C424.992 292.961 425.448 291.369 425.448 289.337C425.448 287.305 424.992 285.713 424.08 284.561C423.168 283.409 421.888 282.833 420.24 282.833C418.608 282.833 417.328 283.417 416.4 284.585C415.488 285.737 415.032 287.321 415.032 289.337ZM440.357 291.401V281.321H442.301V291.353C442.301 293.433 441.773 295.009 440.717 296.081C439.677 297.153 438.221 297.689 436.349 297.689C434.509 297.689 433.069 297.169 432.029 296.129C430.989 295.073 430.469 293.545 430.469 291.545V281.321H432.413V291.521C432.413 293.009 432.765 294.105 433.469 294.809C434.189 295.513 435.149 295.865 436.349 295.865C439.021 295.865 440.357 294.377 440.357 291.401Z" fill="#CDCDCD"/>
<path d="M463.485 282.017V285.569C462.285 284.833 460.949 284.465 459.477 284.465C458.181 284.465 457.093 284.921 456.213 285.833C455.333 286.729 454.893 287.937 454.893 289.457C454.893 290.945 455.333 292.129 456.213 293.009C457.093 293.873 458.229 294.305 459.621 294.305C461.125 294.305 462.413 293.921 463.485 293.153V296.777C462.509 297.385 461.101 297.689 459.261 297.689C456.893 297.689 454.909 296.929 453.309 295.409C451.725 293.873 450.933 291.889 450.933 289.457C450.933 286.993 451.701 284.985 453.237 283.433C454.789 281.881 456.805 281.105 459.285 281.105C461.109 281.105 462.509 281.409 463.485 282.017ZM469.948 284.321V288.881H471.7C473.3 288.881 474.1 288.097 474.1 286.529C474.1 285.841 473.892 285.305 473.476 284.921C473.06 284.521 472.492 284.321 471.772 284.321H469.948ZM474.58 297.497L471.076 291.881H469.948V297.497H466.252V281.321H471.844C473.652 281.321 475.1 281.801 476.188 282.761C477.292 283.721 477.844 284.969 477.844 286.505C477.844 288.809 476.86 290.401 474.892 291.281L478.996 297.497H474.58ZM484.714 294.545H491.05V297.497H480.994V281.321H490.954V284.273H484.714V287.945H490.282V290.873H484.714V294.545ZM498.777 291.209H502.665L502.497 290.633C502.033 289.065 501.649 287.729 501.345 286.625C501.057 285.521 500.881 284.809 500.817 284.489L500.721 284.009C500.593 284.889 500.001 287.097 498.945 290.633L498.777 291.209ZM504.537 297.497L503.553 294.185H497.889L496.905 297.497H493.041L498.441 281.321H503.097L508.497 297.497H504.537ZM521.395 281.321V284.297H517.459V297.497H513.739V284.297H509.779V281.321H521.395ZM527.394 294.545H533.73V297.497H523.674V281.321H533.634V284.273H527.394V287.945H532.962V290.873H527.394V294.545Z" fill="#7F7F7F"/>
</svg>
